<svg xmlns="http://www.w3.org/2000/svg" width="1200" height="630" viewBox="0 0 1200 630">
  <defs>
    <linearGradient id="bg" x1="0%" y1="0%" x2="100%" y2="100%">
      <stop offset="0%" style="stop-color:#0b0d13"/>
      <stop offset="100%" style="stop-color:#12151e"/>
    </linearGradient>
    <linearGradient id="accent" x1="0%" y1="0%" x2="100%" y2="0%">
      <stop offset="0%" style="stop-color:#6366f1"/>
      <stop offset="50%" style="stop-color:#a78bfa"/>
      <stop offset="100%" style="stop-color:#22c55e"/>
    </linearGradient>
    <radialGradient id="glow" cx="50%" cy="40%" r="50%">
      <stop offset="0%" style="stop-color:rgba(99,102,241,0.15)"/>
      <stop offset="100%" style="stop-color:rgba(99,102,241,0)"/>
    </radialGradient>
  </defs>

  <!-- Background -->
  <rect width="1200" height="630" fill="url(#bg)"/>
  <rect width="1200" height="630" fill="url(#glow)"/>

  <!-- Border accent -->
  <rect x="0" y="0" width="1200" height="4" fill="url(#accent)"/>

  <!-- Badge -->
  <rect x="460" y="140" width="280" height="32" rx="16" fill="rgba(99,102,241,0.15)" stroke="rgba(99,102,241,0.3)" stroke-width="1"/>
  <text x="600" y="161" text-anchor="middle" font-family="-apple-system,BlinkMacSystemFont,Segoe UI,sans-serif" font-size="14" font-weight="500" fill="#6366f1">100% Local · 100% Private</text>

  <!-- Title -->
  <text x="600" y="240" text-anchor="middle" font-family="-apple-system,BlinkMacSystemFont,Segoe UI,sans-serif" font-size="64" font-weight="800" fill="#e2e8f0" letter-spacing="-2">SnapScan</text>

  <!-- Subtitle gradient -->
  <text x="600" y="310" text-anchor="middle" font-family="-apple-system,BlinkMacSystemFont,Segoe UI,sans-serif" font-size="36" font-weight="700" fill="url(#accent)" letter-spacing="-1">AI-Powered Screenshot Manager</text>

  <!-- Description -->
  <text x="600" y="370" text-anchor="middle" font-family="-apple-system,BlinkMacSystemFont,Segoe UI,sans-serif" font-size="18" fill="#94a3b8">Scan, organize, and auto-label thousands of screenshots with local AI</text>

  <!-- Mock cards -->
  <g transform="translate(250, 410)">
    <!-- Card 1 -->
    <rect x="0" y="0" width="160" height="90" rx="8" fill="#1a1d2e" stroke="#1e293b" stroke-width="1"/>
    <rect x="8" y="8" width="144" height="45" rx="4" fill="#12151e"/>
    <text x="12" y="36" font-family="monospace" font-size="11" fill="#6366f1">&#60;/&#62;</text>
    <text x="12" y="68" font-family="-apple-system,sans-serif" font-size="10" fill="#e2e8f0">VS Code Go file</text>
    <rect x="12" y="74" width="24" height="12" rx="3" fill="rgba(99,102,241,0.15)"/>
    <text x="16" y="83" font-family="-apple-system,sans-serif" font-size="8" font-weight="600" fill="#6366f1">DEV</text>
    <rect x="40" y="74" width="16" height="12" rx="3" fill="rgba(34,197,94,0.15)"/>
    <text x="43" y="83" font-family="-apple-system,sans-serif" font-size="7" font-weight="700" fill="#22c55e">AI</text>

    <!-- Card 2 -->
    <rect x="175" y="0" width="160" height="90" rx="8" fill="#1a1d2e" stroke="#1e293b" stroke-width="1"/>
    <rect x="183" y="8" width="144" height="45" rx="4" fill="#1e1a2e"/>
    <circle cx="255" cy="30" r="12" fill="none" stroke="#a78bfa" stroke-width="1.5"/>
    <text x="187" y="68" font-family="-apple-system,sans-serif" font-size="10" fill="#e2e8f0">Chrome Reddit</text>
    <rect x="187" y="74" width="40" height="12" rx="3" fill="rgba(99,102,241,0.15)"/>
    <text x="191" y="83" font-family="-apple-system,sans-serif" font-size="8" font-weight="600" fill="#6366f1">BROWSE</text>
    <rect x="231" y="74" width="16" height="12" rx="3" fill="rgba(34,197,94,0.15)"/>
    <text x="234" y="83" font-family="-apple-system,sans-serif" font-size="7" font-weight="700" fill="#22c55e">AI</text>

    <!-- Card 3 -->
    <rect x="350" y="0" width="160" height="90" rx="8" fill="#1a1d2e" stroke="#1e293b" stroke-width="1"/>
    <rect x="358" y="8" width="144" height="45" rx="4" fill="#1a2e1e"/>
    <rect x="380" y="20" width="100" height="3" rx="1" fill="#22c55e" opacity="0.4"/>
    <rect x="380" y="28" width="70" height="3" rx="1" fill="#22c55e" opacity="0.3"/>
    <text x="362" y="68" font-family="-apple-system,sans-serif" font-size="10" fill="#e2e8f0">Discord team chat</text>
    <rect x="362" y="74" width="28" height="12" rx="3" fill="rgba(99,102,241,0.15)"/>
    <text x="366" y="83" font-family="-apple-system,sans-serif" font-size="8" font-weight="600" fill="#6366f1">CHAT</text>
    <rect x="394" y="74" width="16" height="12" rx="3" fill="rgba(34,197,94,0.15)"/>
    <text x="397" y="83" font-family="-apple-system,sans-serif" font-size="7" font-weight="700" fill="#22c55e">AI</text>

    <!-- Card 4 -->
    <rect x="525" y="0" width="160" height="90" rx="8" fill="#1a1d2e" stroke="#1e293b" stroke-width="1"/>
    <rect x="533" y="8" width="144" height="45" rx="4" fill="#2e1a1a"/>
    <rect x="570" y="20" width="70" height="22" rx="3" fill="none" stroke="#f97316" stroke-width="1" opacity="0.4"/>
    <text x="537" y="68" font-family="-apple-system,sans-serif" font-size="10" fill="#e2e8f0">Valorant scoreboard</text>
    <rect x="537" y="74" width="38" height="12" rx="3" fill="rgba(99,102,241,0.15)"/>
    <text x="541" y="83" font-family="-apple-system,sans-serif" font-size="8" font-weight="600" fill="#6366f1">GAMING</text>
    <rect x="579" y="74" width="16" height="12" rx="3" fill="rgba(34,197,94,0.15)"/>
    <text x="582" y="83" font-family="-apple-system,sans-serif" font-size="7" font-weight="700" fill="#22c55e">AI</text>
  </g>

  <!-- Footer -->
  <text x="600" y="580" text-anchor="middle" font-family="-apple-system,sans-serif" font-size="14" fill="#475569">tront.xyz/snapscan</text>
</svg>
